<svg width="38" height="33" viewBox="0 0 38 33" fill="none" xmlns="http://www.w3.org/2000/svg">
<path d="M2.375 11.9625C2.375 8.49718 2.375 6.76451 3.15158 5.44093C3.83468 4.27668 4.92466 3.33011 6.26532 2.7369C7.78944 2.0625 9.78463 2.0625 13.775 2.0625H24.225C28.2154 2.0625 30.2106 2.0625 31.7347 2.7369C33.0753 3.33011 34.1653 4.27668 34.8484 5.44093C35.625 6.76451 35.625 8.49718 35.625 11.9625V21.0375C35.625 24.5028 35.625 26.2355 34.8484 27.5591C34.1653 28.7233 33.0753 29.6699 31.7347 30.2631C30.2106 30.9375 28.2154 30.9375 24.225 30.9375H13.775C9.78463 30.9375 7.78944 30.9375 6.26532 30.2631C4.92466 29.6699 3.83468 28.7233 3.15158 27.5591C2.375 26.2355 2.375 24.5028 2.375 21.0375V11.9625Z" fill="url(#paint0_linear_53_1640)"/>
<path d="M28.8268 10.34C27.0292 9.02 24.8721 8.36 22.5952 8.25L22.2357 8.58C24.2729 9.02 26.0705 9.9 27.7483 11.11C25.711 10.12 23.4341 9.46 21.0373 9.24C20.3182 9.13 19.719 9.13 19 9.13C18.281 9.13 17.6818 9.13 16.9627 9.24C14.5659 9.46 12.289 10.12 10.2517 11.11C11.9295 9.9 13.7271 9.02 15.7643 8.58L15.4048 8.25C13.1279 8.36 10.9708 9.02 9.17317 10.34C7.13589 13.86 6.05734 17.82 5.9375 21.89C7.73509 23.65 10.2517 24.75 12.8882 24.75C12.8882 24.75 13.7271 23.87 14.3263 23.1C12.7683 22.77 11.3303 22 10.3716 20.79C11.2104 21.23 12.0493 21.67 12.8882 22C13.9667 22.44 15.0453 22.66 16.1239 22.88C17.0826 22.99 18.0413 23.1 19 23.1C19.9587 23.1 20.9174 22.99 21.8761 22.88C22.9547 22.66 24.0333 22.44 25.1118 22C25.9507 21.67 26.7896 21.23 27.6284 20.79C26.6697 22 25.2317 22.77 23.6737 23.1C24.2729 23.87 25.1118 24.75 25.1118 24.75C27.7483 24.75 30.2649 23.65 32.0625 21.89C31.9427 17.82 30.8641 13.86 28.8268 10.34ZM15.0453 19.91C13.8469 19.91 12.7683 18.92 12.7683 17.71C12.7683 16.5 13.8469 15.51 15.0453 15.51C16.2437 15.51 17.3222 16.5 17.3222 17.71C17.3222 18.92 16.2437 19.91 15.0453 19.91ZM22.9547 19.91C21.7563 19.91 20.6778 18.92 20.6778 17.71C20.6778 16.5 21.7563 15.51 22.9547 15.51C24.1531 15.51 25.2317 16.5 25.2317 17.71C25.2317 18.92 24.1531 19.91 22.9547 19.91Z" fill="#FAFAFA"/>
<defs>
<linearGradient id="paint0_linear_53_1640" x1="19" y1="2.0625" x2="19" y2="30.9375" gradientUnits="userSpaceOnUse">
<stop stop-color="#687EC9"/>
<stop offset="1" stop-color="#5971C3"/>
</linearGradient>
</defs>
</svg>
