<svg width="13" height="13" viewBox="0 0 13 13" fill="none" xmlns="http://www.w3.org/2000/svg">
<path d="M6.5 13C10.0899 13 13 10.0899 13 6.5C13 2.91015 10.0899 0 6.5 0C2.91015 0 0 2.91015 0 6.5C0 10.0899 2.91015 13 6.5 13Z" fill="#627EEA"/>
<path d="M6.70312 1.625V5.22843L9.74878 6.58937L6.70312 1.625Z" fill="white" fill-opacity="0.602"/>
<path d="M6.70231 1.625L3.65625 6.58937L6.70231 5.22843V1.625Z" fill="white"/>
<path d="M6.70312 8.92434V11.3728L9.75081 7.15634L6.70312 8.92434Z" fill="white" fill-opacity="0.602"/>
<path d="M6.70231 11.3729V8.92408L3.65625 7.15649L6.70231 11.3729Z" fill="white"/>
<path d="M6.70312 8.35773L9.74878 6.58932L6.70312 5.22919V8.35773Z" fill="white" fill-opacity="0.2"/>
<path d="M3.65625 6.58892L6.70231 8.35733V5.22879L3.65625 6.58892Z" fill="white" fill-opacity="0.602"/>
</svg>
