<svg width="7" height="21" viewBox="0 0 7 21" fill="none" xmlns="http://www.w3.org/2000/svg">
<path d="M6.09745 0.568838L0.162575 9.68048C0.0583377 9.84052 0 10.0552 0 10.2787C0 10.5022 0.0583377 10.7168 0.162575 10.8768L6.09745 19.9919C6.14601 20.0665 6.20406 20.1259 6.26819 20.1664C6.33231 20.2069 6.40121 20.2277 6.47082 20.2277C6.54042 20.2277 6.60932 20.2069 6.67344 20.1664C6.73757 20.1259 6.79562 20.0665 6.84418 19.9919C6.94407 19.8389 7 19.6334 7 19.4194C7 19.2055 6.94407 19 6.84418 18.847L1.2632 10.2787L6.84418 1.71208C6.94373 1.5591 6.99944 1.354 6.99944 1.14046C6.99944 0.926918 6.94373 0.721816 6.84418 0.568838C6.79562 0.494204 6.73757 0.434884 6.67344 0.39438C6.60932 0.353876 6.54042 0.333008 6.47082 0.333008C6.40121 0.333008 6.33231 0.353876 6.26819 0.39438C6.20406 0.434884 6.14601 0.494204 6.09745 0.568838Z" fill="#3B4F7D"/>
</svg>
