<svg width="7" height="21" viewBox="0 0 7 21" fill="none" xmlns="http://www.w3.org/2000/svg">
<path d="M0.902545 20.413L6.83743 11.3013C6.94166 11.1413 7 10.9266 7 10.7031C7 10.4797 6.94166 10.265 6.83743 10.105L0.902546 0.989896C0.85399 0.915262 0.795937 0.855943 0.731811 0.815438C0.667685 0.774934 0.598787 0.754067 0.529184 0.754067C0.45958 0.754067 0.390681 0.774934 0.326555 0.815438C0.262429 0.855943 0.204375 0.915262 0.15582 0.989896C0.0559248 1.14295 -3.58815e-07 1.34842 -3.70695e-07 1.56237C-3.82575e-07 1.77633 0.0559248 1.98179 0.155819 2.13485L5.7368 10.7031L0.155819 19.2697C0.0562665 19.4227 0.000557479 19.6278 0.000557467 19.8414C0.000557456 20.0549 0.0562665 20.26 0.155818 20.413C0.204374 20.4876 0.262428 20.5469 0.326554 20.5874C0.39068 20.6279 0.459579 20.6488 0.529182 20.6488C0.598786 20.6488 0.667684 20.6279 0.73181 20.5874C0.795936 20.5469 0.853989 20.4876 0.902545 20.413Z" fill="#3B4F7D"/>
</svg>
