<svg width="45" height="46" viewBox="0 0 45 46" fill="none" xmlns="http://www.w3.org/2000/svg">
<g filter="url(#filter0_d_6_191)">
<path d="M24.6333 8C24.7962 8.00001 24.9549 8.05281 25.0866 8.1508C25.2183 8.24879 25.3161 8.38692 25.3659 8.54529L26.2125 11.2309C26.568 11.4084 26.9082 11.608 27.2329 11.8327L29.9357 11.2387C30.0951 11.204 30.2611 11.2218 30.4099 11.2896C30.5587 11.3573 30.6826 11.4716 30.7638 11.6159L32.8971 15.3857C32.9785 15.5299 33.013 15.6968 32.9956 15.8623C32.9782 16.0278 32.9097 16.1834 32.8001 16.3066L30.9454 18.3966C30.9724 18.7973 30.9724 19.1995 30.9454 19.6003L32.8001 21.6934C32.9097 21.8166 32.9782 21.9722 32.9956 22.1377C33.013 22.3032 32.9785 22.4701 32.8971 22.6143L30.7638 26.3857C30.6824 26.5297 30.5584 26.6436 30.4096 26.7111C30.2608 26.7786 30.0949 26.7962 29.9357 26.7613L27.2329 26.1673C26.9097 26.3904 26.568 26.5916 26.214 26.7691L25.3659 29.4547C25.3161 29.6131 25.2183 29.7512 25.0866 29.8492C24.9549 29.9472 24.7962 30 24.6333 30H20.3667C20.2038 30 20.0451 29.9472 19.9134 29.8492C19.7817 29.7512 19.6839 29.6131 19.6341 29.4547L18.7891 26.7707C18.4345 26.5937 18.0925 26.3915 17.7655 26.1657L15.0643 26.7613C14.9049 26.796 14.7389 26.7782 14.5901 26.7104C14.4413 26.6427 14.3174 26.5284 14.2362 26.3841L12.1029 22.6143C12.0215 22.4701 11.987 22.3032 12.0044 22.1377C12.0218 21.9722 12.0903 21.8166 12.1999 21.6934L14.0546 19.6003C14.0277 19.2006 14.0277 18.7994 14.0546 18.3997L12.1999 16.3066C12.0903 16.1834 12.0218 16.0278 12.0044 15.8623C11.987 15.6968 12.0215 15.5299 12.1029 15.3857L14.2362 11.6143C14.3176 11.4703 14.4416 11.3564 14.5904 11.2889C14.7392 11.2214 14.9051 11.2038 15.0643 11.2387L17.7655 11.8343C18.0918 11.6096 18.4335 11.4069 18.7891 11.2293L19.6356 8.54529C19.6853 8.38743 19.7826 8.24967 19.9137 8.15172C20.0447 8.05378 20.2028 8.00067 20.3652 8H24.6317H24.6333ZM24.0699 9.57143H20.9301L20.0558 12.3481L19.4663 12.642C19.1765 12.7868 18.8968 12.9516 18.629 13.1354L18.0841 13.5126L15.289 12.8966L13.7191 15.6749L15.6353 17.8403L15.5892 18.5066C15.567 18.8351 15.567 19.1649 15.5892 19.4934L15.6353 20.1597L13.716 22.3251L15.2875 25.1034L18.0826 24.489L18.6275 24.8646C18.8952 25.0484 19.175 25.2132 19.4648 25.358L20.0543 25.6519L20.9301 28.4286H24.073L24.9503 25.6503L25.5383 25.358C25.8278 25.2136 26.1071 25.0487 26.3741 24.8646L26.9174 24.489L29.7141 25.1034L31.284 22.3251L29.3662 20.1597L29.4124 19.4934C29.4346 19.1643 29.4346 18.8341 29.4124 18.505L29.3662 17.8387L31.2855 15.6749L29.7141 12.8966L26.9174 13.5094L26.3741 13.1354C26.1071 12.9513 25.8278 12.7864 25.5383 12.642L24.9503 12.3497L24.0715 9.57143H24.0699ZM22.5 14.2857C23.7246 14.2857 24.8991 14.7824 25.7651 15.6665C26.631 16.5506 27.1175 17.7497 27.1175 19C27.1175 20.2503 26.631 21.4494 25.7651 22.3335C24.8991 23.2176 23.7246 23.7143 22.5 23.7143C21.2754 23.7143 20.1009 23.2176 19.2349 22.3335C18.369 21.4494 17.8825 20.2503 17.8825 19C17.8825 17.7497 18.369 16.5506 19.2349 15.6665C20.1009 14.7824 21.2754 14.2857 22.5 14.2857ZM22.5 15.8571C21.6836 15.8571 20.9006 16.1883 20.3233 16.7777C19.746 17.3671 19.4217 18.1665 19.4217 19C19.4217 19.8335 19.746 20.6329 20.3233 21.2223C20.9006 21.8117 21.6836 22.1429 22.5 22.1429C23.3164 22.1429 24.0994 21.8117 24.6767 21.2223C25.254 20.6329 25.5783 19.8335 25.5783 19C25.5783 18.1665 25.254 17.3671 24.6767 16.7777C24.0994 16.1883 23.3164 15.8571 22.5 15.8571Z" fill="#3B4F7D"/>
</g>
<defs>
<filter id="filter0_d_6_191" x="0" y="0" width="45" height="46" filterUnits="userSpaceOnUse" color-interpolation-filters="sRGB">
<feFlood flood-opacity="0" result="BackgroundImageFix"/>
<feColorMatrix in="SourceAlpha" type="matrix" values="0 0 0 0 0 0 0 0 0 0 0 0 0 0 0 0 0 0 127 0" result="hardAlpha"/>
<feOffset dy="4"/>
<feGaussianBlur stdDeviation="6"/>
<feComposite in2="hardAlpha" operator="out"/>
<feColorMatrix type="matrix" values="0 0 0 0 0 0 0 0 0 0 0 0 0 0 0 0 0 0 0.12 0"/>
<feBlend mode="normal" in2="BackgroundImageFix" result="effect1_dropShadow_6_191"/>
<feBlend mode="normal" in="SourceGraphic" in2="effect1_dropShadow_6_191" result="shape"/>
</filter>
</defs>
</svg>
