<svg width="8" height="7" viewBox="0 0 8 7" fill="none" xmlns="http://www.w3.org/2000/svg">
<path d="M2.14913 5.3934C1.91452 5.3934 1.68951 5.30384 1.52362 5.14444C1.35772 4.98503 1.26453 4.76883 1.26453 4.5434V2.32033C1.26453 2.0949 1.35772 1.8787 1.52362 1.7193C1.68951 1.55989 1.91452 1.47034 2.14913 1.47034H5.82361C5.93978 1.47034 6.05481 1.49232 6.16214 1.53504C6.26946 1.57776 6.36698 1.64037 6.44912 1.7193C6.53126 1.79822 6.59642 1.89193 6.64088 1.99505C6.68533 2.09818 6.70821 2.20871 6.70821 2.32033V4.5434C6.70821 4.65502 6.68533 4.76555 6.64088 4.86868C6.59642 4.97181 6.53126 5.06551 6.44912 5.14444C6.36698 5.22337 6.26946 5.28598 6.16214 5.3287C6.05481 5.37141 5.93978 5.3934 5.82361 5.3934H4.26182L2.89763 6.37416C2.84708 6.41052 2.787 6.43264 2.72412 6.43805C2.66123 6.44346 2.59802 6.43195 2.54155 6.40481C2.48508 6.37766 2.43759 6.33596 2.40438 6.28436C2.37118 6.23276 2.35357 6.17329 2.35354 6.11263V5.3934H2.14913ZM4.12627 5.00109H5.82361C5.94994 5.00109 6.0711 4.95287 6.16042 4.86704C6.24975 4.7812 6.29994 4.66479 6.29994 4.5434V2.32033C6.29994 2.19895 6.24975 2.08253 6.16042 1.9967C6.0711 1.91086 5.94994 1.86264 5.82361 1.86264H2.14913C2.0228 1.86264 1.90164 1.91086 1.81231 1.9967C1.72299 2.08253 1.6728 2.19895 1.6728 2.32033V4.5434C1.6728 4.79605 1.8862 5.00109 2.14913 5.00109H2.76127V5.98186L4.12627 5.00109Z" fill="#D6D6D6" stroke="#AEAEAE"/>
</svg>
