<svg width="98" height="100" viewBox="0 0 98 100" fill="none" xmlns="http://www.w3.org/2000/svg">
<g filter="url(#filter0_d_134_101)">
<path d="M49.0073 40.554C47.6666 40.554 46.4111 41.0726 45.4604 42.0203C44.5143 42.9681 43.9897 44.2199 43.9897 45.5566C43.9897 46.8933 44.5143 48.145 45.4604 49.0928C46.4111 50.0361 47.6666 50.5591 49.0073 50.5591C50.348 50.5591 51.6035 50.0361 52.5541 49.0928C53.5003 48.145 54.0249 46.8933 54.0249 45.5566C54.0249 44.2199 53.5003 42.9681 52.5541 42.0203C52.0898 41.5539 51.5372 41.184 50.9283 40.9323C50.3194 40.6806 49.6664 40.552 49.0073 40.554ZM67.4948 51.0822L64.5623 48.5832C64.7013 47.7337 64.773 46.8664 64.773 46.0036C64.773 45.1408 64.7013 44.269 64.5623 43.4241L67.4948 40.925C67.7164 40.736 67.8749 40.4841 67.9494 40.203C68.0239 39.9219 68.0108 39.6249 67.9119 39.3514L67.8715 39.2352C67.0644 36.9851 65.8551 34.8994 64.3022 33.0792L64.2215 32.9853C64.0329 32.7642 63.7816 32.6053 63.5007 32.5295C63.2197 32.4537 62.9223 32.4645 62.6476 32.5606L59.0066 33.8526C57.6614 32.7528 56.1638 31.8855 54.5406 31.282L53.8366 27.4865C53.7835 27.2005 53.6443 26.9375 53.4377 26.7323C53.2311 26.5271 52.9667 26.3894 52.6797 26.3375L52.5586 26.3152C50.2269 25.8949 47.7697 25.8949 45.438 26.3152L45.317 26.3375C45.03 26.3894 44.7656 26.5271 44.559 26.7323C44.3523 26.9375 44.2132 27.2005 44.1601 27.4865L43.4516 31.2999C41.8438 31.9082 40.346 32.7734 39.0169 33.8615L35.349 32.5606C35.0744 32.4638 34.7768 32.4525 34.4957 32.5284C34.2146 32.6043 33.9632 32.7636 33.7751 32.9853L33.6944 33.0792C32.1443 34.9013 30.9353 36.9865 30.1252 39.2352L30.0848 39.3514C29.883 39.9102 30.0489 40.5361 30.5018 40.925L33.4702 43.4509C33.3312 44.2914 33.264 45.1497 33.264 45.9992C33.264 46.8575 33.3312 47.7159 33.4702 48.5474L30.5108 51.0733C30.2892 51.2623 30.1307 51.5142 30.0562 51.7953C29.9817 52.0764 29.9948 52.3734 30.0938 52.6469L30.1341 52.7631C30.9457 55.0119 32.143 57.0907 33.7034 58.9191L33.7841 59.013C33.9727 59.2341 34.224 59.393 34.505 59.4688C34.7859 59.5446 35.0833 59.5338 35.358 59.4377L39.0259 58.1368C40.3621 59.2321 41.8508 60.0994 43.4606 60.6984L44.1691 64.5118C44.2222 64.7978 44.3613 65.0608 44.5679 65.266C44.7746 65.4713 45.0389 65.6089 45.3259 65.6608L45.447 65.6831C47.8016 66.1056 50.213 66.1056 52.5676 65.6831L52.6887 65.6608C52.9757 65.6089 53.24 65.4713 53.4467 65.266C53.6533 65.0608 53.7924 64.7978 53.8455 64.5118L54.5495 60.7163C56.1727 60.1083 57.6704 59.2455 59.0156 58.1457L62.6566 59.4377C62.9312 59.5345 63.2288 59.5458 63.5099 59.4699C63.7911 59.3941 64.0424 59.2347 64.2305 59.013L64.3112 58.9191C65.8716 57.0817 67.0689 55.0119 67.8805 52.7631L67.9208 52.6469C68.1136 52.0926 67.9477 51.4711 67.4948 51.0822ZM49.0073 53.4158C44.6533 53.4158 41.1244 49.8975 41.1244 45.5566C41.1244 41.2156 44.6533 37.6973 49.0073 37.6973C53.3613 37.6973 56.8902 41.2156 56.8902 45.5566C56.8902 49.8975 53.3613 53.4158 49.0073 53.4158Z" fill="white"/>
</g>
<defs>
<filter id="filter0_d_134_101" x="0" y="0" width="98" height="100" filterUnits="userSpaceOnUse" color-interpolation-filters="sRGB">
<feFlood flood-opacity="0" result="BackgroundImageFix"/>
<feColorMatrix in="SourceAlpha" type="matrix" values="0 0 0 0 0 0 0 0 0 0 0 0 0 0 0 0 0 0 127 0" result="hardAlpha"/>
<feOffset dy="4"/>
<feGaussianBlur stdDeviation="15"/>
<feComposite in2="hardAlpha" operator="out"/>
<feColorMatrix type="matrix" values="0 0 0 0 0 0 0 0 0 0 0 0 0 0 0 0 0 0 0.1 0"/>
<feBlend mode="normal" in2="BackgroundImageFix" result="effect1_dropShadow_134_101"/>
<feBlend mode="normal" in="SourceGraphic" in2="effect1_dropShadow_134_101" result="shape"/>
</filter>
</defs>
</svg>
