<svg width="9" height="16" viewBox="0 0 9 16" fill="none" xmlns="http://www.w3.org/2000/svg">
<path d="M7.43849 16.0008C7.26987 16.0013 7.10326 15.966 6.95091 15.8973C6.79855 15.8287 6.66433 15.7285 6.5581 15.6041L1.1064 9.17224C0.940389 8.98042 0.849633 8.73982 0.849633 8.49153C0.849633 8.24323 0.940389 8.00263 1.1064 7.81082L6.74998 1.37891C6.94156 1.15999 7.21687 1.02232 7.51533 0.996187C7.81379 0.970052 8.11096 1.05759 8.34147 1.23955C8.57197 1.42151 8.71692 1.68298 8.74444 1.96644C8.77196 2.2499 8.67979 2.53213 8.4882 2.75105L3.44284 8.49689L8.31889 14.2427C8.45691 14.4001 8.54459 14.5917 8.57154 14.7949C8.59849 14.9981 8.5636 15.2043 8.47098 15.3893C8.37836 15.5742 8.2319 15.7301 8.04892 15.8385C7.86595 15.9469 7.65412 16.0032 7.43849 16.0008Z" fill="white"/>
</svg>
