<svg width="9" height="16" viewBox="0 0 9 16" fill="none" xmlns="http://www.w3.org/2000/svg">
<path d="M1.56153 0.991723C1.73016 0.991178 1.89676 1.02652 2.04912 1.09516C2.20147 1.1638 2.3357 1.26399 2.44193 1.38836L7.89362 7.82027C8.05964 8.01208 8.15039 8.25268 8.15039 8.50098C8.15039 8.74928 8.05964 8.98988 7.89362 9.18169L2.25005 15.6136C2.05846 15.8325 1.78315 15.9702 1.48469 15.9963C1.18623 16.0225 0.889061 15.9349 0.658558 15.753C0.428056 15.571 0.283102 15.3095 0.255584 15.0261C0.228066 14.7426 0.320239 14.4604 0.511825 14.2415L5.55718 8.49562L0.681134 2.74978C0.543111 2.59243 0.455436 2.40082 0.428483 2.19763C0.401529 1.99443 0.436425 1.78816 0.529043 1.60321C0.62166 1.41826 0.768123 1.26238 0.9511 1.15402C1.13408 1.04565 1.34591 0.989331 1.56153 0.991723Z" fill="white"/>
</svg>
