<svg width="62" height="11" viewBox="0 0 62 11" fill="none" xmlns="http://www.w3.org/2000/svg">
<rect x="12.5931" width="10.7941" height="10.7941" rx="1" fill="#F9290F"/>
<path d="M15.5225 9.30018C15.3053 9.41184 15.0593 9.21669 15.103 8.96738L15.4769 6.83585C15.5347 6.5064 15.424 6.16987 15.1819 5.93912L13.5892 4.42141C13.4042 4.24505 13.5 3.9226 13.7479 3.88738L15.985 3.56958C16.3088 3.52358 16.5896 3.32214 16.737 3.03017L17.7297 1.06381C17.8403 0.844698 18.1399 0.844698 18.2505 1.06381L19.2432 3.03017C19.3906 3.32214 19.6714 3.52358 19.9952 3.56958L22.2323 3.88738C22.4802 3.9226 22.576 4.24505 22.391 4.42141L20.7983 5.93912C20.5562 6.16987 20.4455 6.5064 20.5033 6.83585L20.8772 8.96738C20.9209 9.21669 20.675 9.41184 20.4577 9.30018L18.4472 8.26685C18.1603 8.11938 17.8199 8.11938 17.533 8.26685L15.5225 9.30018Z" fill="white"/>
<rect x="25.1863" width="10.7941" height="10.7941" rx="1" fill="#F9290F"/>
<path d="M28.1158 9.30018C27.8985 9.41184 27.6525 9.21669 27.6963 8.96738L28.0702 6.83585C28.128 6.5064 28.0173 6.16987 27.7751 5.93912L26.1825 4.42141C25.9974 4.24505 26.0932 3.9226 26.3411 3.88738L28.5782 3.56958C28.902 3.52358 29.1829 3.32214 29.3303 3.03017L30.3229 1.06381C30.4335 0.844698 30.7332 0.844698 30.8438 1.06381L31.8364 3.03017C31.9838 3.32214 32.2647 3.52358 32.5885 3.56958L34.8256 3.88738C35.0735 3.9226 35.1693 4.24505 34.9842 4.42141L33.3916 5.93912C33.1495 6.16987 33.0387 6.5064 33.0965 6.83585L33.4705 8.96738C33.5142 9.21669 33.2682 9.41184 33.051 9.30018L31.0405 8.26685C30.7536 8.11938 30.4131 8.11938 30.1262 8.26685L28.1158 9.30018Z" fill="white"/>
<rect x="37.7794" width="10.7941" height="10.7941" rx="1" fill="#F9290F"/>
<path d="M40.7089 9.30018C40.4917 9.41184 40.2457 9.21669 40.2894 8.96738L40.6633 6.83585C40.7211 6.5064 40.6104 6.16987 40.3683 5.93912L38.7756 4.42141C38.5906 4.24505 38.6864 3.9226 38.9343 3.88738L41.1714 3.56958C41.4952 3.52358 41.776 3.32214 41.9234 3.03017L42.9161 1.06381C43.0267 0.844698 43.3263 0.844698 43.4369 1.06381L44.4296 3.03017C44.577 3.32214 44.8578 3.52358 45.1816 3.56958L47.4187 3.88738C47.6666 3.9226 47.7624 4.24505 47.5774 4.42141L45.9847 5.93912C45.7426 6.16987 45.6319 6.5064 45.6897 6.83585L46.0636 8.96738C46.1074 9.21669 45.8614 9.41184 45.6441 9.30018L43.6336 8.26685C43.3467 8.11938 43.0063 8.11938 42.7194 8.26685L40.7089 9.30018Z" fill="white"/>
<rect x="50.3726" width="10.7941" height="10.7941" rx="1" fill="#3B4F7D" fill-opacity="0.4"/>
<path d="M53.302 9.30018C53.0848 9.41184 52.8388 9.21669 52.8825 8.96738L53.2565 6.83585C53.3143 6.5064 53.2035 6.16987 52.9614 5.93912L51.3688 4.42141C51.1837 4.24505 51.2795 3.9226 51.5274 3.88738L53.7645 3.56958C54.0883 3.52358 54.3692 3.32214 54.5166 3.03017L55.5092 1.06381C55.6198 0.844698 55.9195 0.844698 56.0301 1.06381L57.0227 3.03017C57.1701 3.32214 57.451 3.52358 57.7748 3.56958L60.0119 3.88738C60.2598 3.9226 60.3556 4.24505 60.1705 4.42141L58.5779 5.93912C58.3357 6.16987 58.225 6.5064 58.2828 6.83585L58.6568 8.96738C58.7005 9.21669 58.4545 9.41184 58.2372 9.30018L56.2268 8.26685C55.9399 8.11938 55.5994 8.11938 55.3125 8.26685L53.302 9.30018Z" fill="white"/>
<rect x="50.3726" width="5.86133" height="10.7941" rx="1" fill="#F9290F"/>
<path d="M53.302 9.30018C53.0848 9.41184 52.8388 9.21669 52.8825 8.96738L53.2565 6.83585C53.3143 6.5064 53.2035 6.16987 52.9614 5.93912L51.3688 4.42141C51.1837 4.24505 51.2795 3.9226 51.5274 3.88738L53.7645 3.56958C54.0883 3.52358 54.3692 3.32214 54.5166 3.03017L55.5092 1.06381C55.6198 0.844698 55.9195 0.844698 56.0301 1.06381L57.0227 3.03017C57.1701 3.32214 57.451 3.52358 57.7748 3.56958L60.0119 3.88738C60.2598 3.9226 60.3556 4.24505 60.1705 4.42141L58.5779 5.93912C58.3357 6.16987 58.225 6.5064 58.2828 6.83585L58.6568 8.96738C58.7005 9.21669 58.4545 9.41184 58.2372 9.30018L56.2268 8.26685C55.9399 8.11938 55.5994 8.11938 55.3125 8.26685L53.302 9.30018Z" fill="white"/>
<rect width="10.7941" height="10.7941" rx="1" fill="#F9290F"/>
<path d="M2.92949 9.30018C2.71224 9.41184 2.46624 9.21669 2.50998 8.96738L2.88393 6.83585C2.94172 6.5064 2.83098 6.16987 2.58885 5.93912L0.996213 4.42141C0.811149 4.24505 0.906947 3.9226 1.15487 3.88738L3.39195 3.56958C3.71576 3.52358 3.99661 3.32214 4.144 3.03017L5.13666 1.06381C5.24727 0.844698 5.5469 0.844698 5.65751 1.06381L6.65017 3.03017C6.79756 3.32214 7.07841 3.52358 7.40222 3.56958L9.6393 3.88738C9.88723 3.9226 9.98302 4.24505 9.79796 4.42141L8.20533 5.93912C7.96319 6.16987 7.85245 6.5064 7.91024 6.83585L8.28419 8.96738C8.32793 9.21669 8.08194 9.41184 7.86468 9.30018L5.85422 8.26685C5.5673 8.11938 5.22687 8.11938 4.93996 8.26685L2.92949 9.30018Z" fill="white"/>
</svg>
