<svg width="23" height="23" viewBox="0 0 23 23" fill="none" xmlns="http://www.w3.org/2000/svg">
<path d="M11.5 0C5.14933 0 0 5.14933 0 11.5C0 17.8507 5.14933 23 11.5 23C17.8507 23 23 17.8507 23 11.5C23 5.14933 17.8507 0 11.5 0ZM11.5 21.0491C6.22746 21.0491 1.95089 16.7725 1.95089 11.5C1.95089 6.22746 6.22746 1.95089 11.5 1.95089C16.7725 1.95089 21.0491 6.22746 21.0491 11.5C21.0491 16.7725 16.7725 21.0491 11.5 21.0491Z" fill="white"/>
<path d="M16.2232 10.6786H12.3214V6.77678C12.3214 6.66384 12.229 6.57143 12.1161 6.57143H10.8839C10.771 6.57143 10.6786 6.66384 10.6786 6.77678V10.6786H6.77679C6.66384 10.6786 6.57143 10.771 6.57143 10.8839V12.1161C6.57143 12.229 6.66384 12.3214 6.77679 12.3214H10.6786V16.2232C10.6786 16.3362 10.771 16.4286 10.8839 16.4286H12.1161C12.229 16.4286 12.3214 16.3362 12.3214 16.2232V12.3214H16.2232C16.3362 12.3214 16.4286 12.229 16.4286 12.1161V10.8839C16.4286 10.771 16.3362 10.6786 16.2232 10.6786Z" fill="white"/>
</svg>
