<svg width="43" height="38" viewBox="0 0 43 38" fill="none" xmlns="http://www.w3.org/2000/svg">
<path d="M11.3558 23.5037C11.5658 21.9672 12.2789 21.1069 13.6227 20.225C15.5454 19.0306 17.9471 19.7063 17.9471 19.7063V15.6982C18.531 15.6851 19.1151 15.7156 19.6927 15.7896V20.9476C19.6927 20.9476 17.2916 20.2719 15.3689 21.4669C14.0259 22.3482 13.3113 23.2091 13.1021 24.7456C13.0955 25.5799 13.2727 26.6706 14.0886 27.6136C13.8868 27.5222 13.6812 27.418 13.4717 27.3011C11.6744 26.2346 11.347 24.6344 11.3558 23.5037ZM29.6096 8.28745C28.2869 7.00662 27.7867 5.71343 27.6059 4.80499H29.2698C29.2698 4.80499 28.938 7.18695 31.3558 9.52938L31.3894 9.56087C30.7377 9.19864 30.1401 8.77107 29.6096 8.28745ZM37.6249 11.9187V16.9729C37.6249 16.9729 35.5017 16.8994 33.9304 16.5462C31.7364 16.0521 30.3263 15.2944 30.3263 15.2944C30.3263 15.2944 29.3522 14.754 29.2734 14.7163V25.1532C29.2734 25.7343 29.0933 27.1856 28.5443 28.396C27.8276 29.9795 26.7215 31.0188 26.518 31.2313C26.518 31.2313 25.1728 32.6362 22.7995 33.5824C20.6602 34.4358 18.782 34.4142 18.2205 34.4358C18.2205 34.4358 14.9737 34.5495 12.0521 32.8715C11.4203 32.5017 10.8306 32.0828 10.2905 31.6203L10.3051 31.6296C13.2275 33.3075 16.4735 33.1939 16.4735 33.1939C17.0357 33.1723 18.9139 33.1939 21.0525 32.3404C23.4236 31.3943 24.7711 29.9894 24.7711 29.9894C24.9723 29.7769 26.0835 28.7375 26.7973 27.1535C27.3449 25.9437 27.5264 24.4918 27.5264 23.9106V13.475C27.6052 13.5133 28.5786 14.0537 28.5786 14.0537C28.5786 14.0537 29.9894 14.812 32.1834 15.3055C33.7554 15.6587 35.8779 15.7322 35.8779 15.7322V11.7718C36.6041 11.9157 37.2231 11.9546 37.6249 11.9187Z" fill="#EE1D52"/>
<path d="M35.8788 11.7718V15.731C35.8788 15.731 33.7563 15.6575 32.1843 15.3042C29.9903 14.8102 28.5795 14.0524 28.5795 14.0524C28.5795 14.0524 27.6061 13.5121 27.5273 13.4738V23.9119C27.5273 24.493 27.3472 25.9449 26.7982 27.1547C26.0815 28.7388 24.9754 29.7781 24.772 29.9906C24.772 29.9906 23.426 31.3956 21.0534 32.3417C18.9148 33.1951 17.0366 33.1735 16.4745 33.1951C16.4745 33.1951 13.2284 33.3088 10.306 31.6308L10.2914 31.6216C9.98289 31.3576 9.69246 31.0788 9.42157 30.7866C8.48902 29.7818 7.91738 28.5937 7.77374 28.2546C7.77349 28.2532 7.77349 28.2517 7.77374 28.2503C7.54261 27.6611 7.05701 26.2463 7.12336 24.8759C7.24075 22.4581 8.2032 20.9741 8.45766 20.6023C9.1316 19.5885 10.0081 18.6814 11.0483 17.9215C11.9661 17.2657 13.0065 16.7439 14.1267 16.3776C15.3376 15.9474 16.6343 15.7168 17.9473 15.6982V19.7063C17.9473 19.7063 15.5455 19.0331 13.6236 20.225C12.2798 21.1069 11.5667 21.9672 11.3567 23.5037C11.3479 24.6344 11.6753 26.2345 13.4712 27.3017C13.6807 27.419 13.8863 27.5232 14.088 27.6142C14.4017 27.9746 14.7836 28.2886 15.2182 28.5436C16.9724 29.5249 18.4424 29.5935 20.3221 28.9562C21.5754 28.53 22.5189 27.5697 22.9564 26.5057C23.2313 25.8412 23.2277 25.1723 23.2277 24.4807V4.80499H27.6024C27.7833 5.71343 28.2834 7.00662 29.6061 8.28745C30.1367 8.77107 30.7343 9.19864 31.3859 9.56087C31.5784 9.73688 32.5627 10.607 33.8263 11.1412C34.4797 11.4174 35.1683 11.6289 35.8788 11.7718V11.7718Z" fill="black"/>
<path d="M6.03223 27.0239V27.027L6.14078 27.2869C6.12831 27.2567 6.08797 27.1647 6.03223 27.0239Z" fill="#69C9D0"/>
<path d="M14.1266 16.3776C13.0064 16.744 11.9661 17.2658 11.0482 17.9216C10.0078 18.6832 9.13143 19.5922 8.45834 20.608C8.20388 20.9785 7.24142 22.4638 7.12403 24.8815C7.05768 26.2519 7.54328 27.6668 7.77442 28.2559C7.77417 28.2573 7.77417 28.2588 7.77442 28.2602C7.92024 28.5962 8.48969 29.7844 9.42225 30.7923C9.69314 31.0844 9.98357 31.3632 10.2921 31.6272C9.30354 31.0481 8.4219 30.348 7.67598 29.5497C6.75145 28.5536 6.18127 27.3777 6.03253 27.0307C6.03235 27.0282 6.03235 27.0257 6.03253 27.0233V27.0189C5.80066 26.4304 5.3136 25.0149 5.38141 23.6427C5.4988 21.2249 6.46125 19.7409 6.71572 19.3691C7.38861 18.3533 8.26496 17.4443 9.30559 16.6827C10.2233 16.0267 11.2637 15.5049 12.384 15.1388C13.0828 14.8932 13.8108 14.7121 14.5553 14.5984C15.6774 14.4325 16.8235 14.4181 17.9509 14.5558V15.6983C16.6367 15.7165 15.3387 15.9471 14.1266 16.3776Z" fill="#69C9D0"/>
<path d="M27.6057 4.80504H23.2309V24.4813C23.2309 25.173 23.2309 25.84 22.9597 26.5063C22.5178 27.5698 21.578 28.5301 20.3254 28.9562C18.4449 29.596 16.975 29.525 15.2214 28.5437C14.7861 28.2898 14.4033 27.9768 14.0884 27.6173C15.5824 28.2923 16.9196 28.2806 18.5762 27.7174C19.8281 27.2913 20.7694 26.3309 21.2098 25.2669C21.4854 24.6024 21.4818 23.9335 21.4818 23.2425V3.5625H27.5226C27.5226 3.5625 27.4548 4.05161 27.6057 4.80504ZM35.8784 10.6769V11.7718C35.1692 11.6287 34.4818 11.4172 33.8296 11.1413C32.566 10.6071 31.5817 9.73693 31.3892 9.56092C31.6125 9.68513 31.8443 9.79814 32.0833 9.89935C33.6196 10.549 35.1325 10.7429 35.8784 10.6769Z" fill="#69C9D0"/>
</svg>
