<svg width="26" height="14" viewBox="0 0 26 14" fill="none" xmlns="http://www.w3.org/2000/svg">
<path d="M17.1655 2.80022C16.3937 2.80022 15.7702 2.17454 15.7702 1.40011C15.7702 0.625674 16.3937 0 17.1655 0H24.1421C24.9139 0 25.5374 0.625674 25.5374 1.40011V8.40066C25.5374 9.17509 24.9139 9.80077 24.1421 9.80077C23.3703 9.80077 22.7468 9.17509 22.7468 8.40066V4.78225L15.3603 12.1897C14.8153 12.7366 13.9345 12.7366 13.3895 12.1897L8.75439 7.58247L2.80382 13.5898C2.25877 14.1367 1.37536 14.1367 0.830405 13.5898C0.285535 13.0429 0.285535 12.1591 0.830405 11.6122L7.80819 4.61161C8.35324 4.06469 9.23403 4.06469 9.77908 4.61161L14.3749 9.21885L20.7715 2.76084L17.1655 2.80022Z" fill="white"/>
</svg>
