<svg width="36" height="26" viewBox="0 0 36 26" fill="none" xmlns="http://www.w3.org/2000/svg">
<path d="M11.3085 26C24.8932 26 32.3265 15.9941 32.3265 7.33169C32.3265 7.0502 32.3265 6.7687 32.3121 6.48721C33.7527 5.56595 35.006 4.40157 36 3.08366C34.6747 3.60827 33.2485 3.95374 31.7503 4.12008C33.2773 3.31398 34.4442 2.02165 35.006 0.48622C33.5798 1.24114 31.9952 1.77854 30.3097 2.07283C28.9556 0.793307 27.0396 0 24.922 0C20.8451 0 17.5318 2.94291 17.5318 6.56398C17.5318 7.07579 17.6038 7.5748 17.7191 8.06102C11.5822 7.79232 6.13686 5.16929 2.4922 1.20276C1.85834 2.1752 1.4982 3.30118 1.4982 4.50394C1.4982 6.7815 2.80912 8.79035 4.78271 9.96752C3.57263 9.92913 2.43457 9.63484 1.44058 9.14862C1.44058 9.17421 1.44058 9.1998 1.44058 9.23819C1.44058 12.4114 3.9904 15.0728 7.36134 15.6742C6.7419 15.8278 6.09364 15.9045 5.41657 15.9045C4.94118 15.9045 4.48019 15.8661 4.03361 15.7894C4.96999 18.3996 7.70708 20.2933 10.934 20.3445C8.39856 22.1102 5.21489 23.1594 1.7575 23.1594C1.16687 23.1594 0.576231 23.1339 0 23.0699C3.2557 24.9124 7.14526 26 11.3085 26Z" fill="#47ACDF"/>
</svg>
