<svg width="8" height="6" viewBox="0 0 8 6" fill="none" xmlns="http://www.w3.org/2000/svg">
<path d="M3.84547 0.0984373C3.69567 -0.0328125 3.38112 -0.0328125 3.23132 0.0984373L0.0858318 2.86159C0.0396869 2.90227 0.0108004 2.95126 0.00248899 3.00296C-0.00582244 3.05465 0.00677818 3.10694 0.0388439 3.15383C0.0709097 3.20071 0.121141 3.24029 0.18377 3.26803C0.246398 3.29576 0.318886 3.31051 0.39291 3.3106H1.96565V5.24481C1.96565 5.31809 2.00708 5.38838 2.08081 5.4402C2.15455 5.49201 2.25456 5.52113 2.35884 5.52113H4.71795C4.82223 5.52113 4.92224 5.49201 4.99598 5.4402C5.06971 5.38838 5.11114 5.31809 5.11114 5.24481V3.3106H6.68388C6.75791 3.31051 6.83039 3.29576 6.89302 3.26803C6.95565 3.24029 7.00588 3.20071 7.03795 3.15383C7.07001 3.10694 7.08261 3.05465 7.0743 3.00296C7.06599 2.95126 7.03711 2.90227 6.99096 2.86159L3.84547 0.0984373ZM4.71795 2.75797H4.32477V4.9685H2.75202V2.75797H1.21113L3.5384 0.713515L5.86566 2.75797H4.71795Z" fill="#AEAEAE"/>
</svg>
