<svg width="32" height="32" viewBox="0 0 32 32" fill="none" xmlns="http://www.w3.org/2000/svg">
<path d="M29.4788 14.1176C29.0325 14.1176 28.6044 14.3035 28.2888 14.6345C27.9732 14.9654 27.796 15.4143 27.796 15.8823V26.4705C27.796 26.9385 27.6187 27.3874 27.3031 27.7183C26.9875 28.0493 26.5594 28.2352 26.1131 28.2352H5.91911C5.47279 28.2352 5.04476 28.0493 4.72916 27.7183C4.41357 27.3874 4.23627 26.9385 4.23627 26.4705V5.2941C4.23627 4.82607 4.41357 4.37721 4.72916 4.04627C5.04476 3.71532 5.47279 3.5294 5.91911 3.5294H16.0161C16.4624 3.5294 16.8905 3.34348 17.2061 3.01253C17.5216 2.68158 17.6989 2.23273 17.6989 1.7647C17.6989 1.29667 17.5216 0.847814 17.2061 0.516868C16.8905 0.185923 16.4624 0 16.0161 0H5.91911C4.58016 0 3.29606 0.55777 2.34928 1.55061C1.4025 2.54344 0.870605 3.89002 0.870605 5.2941V26.4705C0.870605 27.8746 1.4025 29.2211 2.34928 30.214C3.29606 31.2068 4.58016 31.7646 5.91911 31.7646H26.1131C27.4521 31.7646 28.7362 31.2068 29.6829 30.214C30.6297 29.2211 31.1616 27.8746 31.1616 26.4705V15.8823C31.1616 15.4143 30.9843 14.9654 30.6687 14.6345C30.3531 14.3035 29.9251 14.1176 29.4788 14.1176Z" fill="#3B4F7D"/>
<path d="M22.7487 3.52944H25.4075L14.8225 14.6119C14.6648 14.7759 14.5396 14.9711 14.4541 15.1862C14.3687 15.4012 14.3247 15.6319 14.3247 15.8648C14.3247 16.0978 14.3687 16.3285 14.4541 16.5435C14.5396 16.7586 14.6648 16.9537 14.8225 17.1178C14.9789 17.2832 15.1651 17.4145 15.3701 17.5041C15.5752 17.5937 15.7951 17.6398 16.0173 17.6398C16.2395 17.6398 16.4594 17.5937 16.6645 17.5041C16.8696 17.4145 17.0557 17.2832 17.2121 17.1178L27.7972 6.03535V8.82361C27.7972 9.29164 27.9745 9.74051 28.2901 10.0715C28.6056 10.4024 29.0337 10.5883 29.48 10.5883C29.9263 10.5883 30.3544 10.4024 30.6699 10.0715C30.9855 9.74051 31.1628 9.29164 31.1628 8.82361V1.76472C31.1628 1.29669 30.9855 0.847824 30.6699 0.516875C30.3544 0.185925 29.9263 0 29.48 0H22.7487C22.3023 0 21.8743 0.185925 21.5587 0.516875C21.2431 0.847824 21.0658 1.29669 21.0658 1.76472C21.0658 2.23275 21.2431 2.68162 21.5587 3.01257C21.8743 3.34352 22.3023 3.52944 22.7487 3.52944Z" fill="#3B4F7D"/>
</svg>
